<mxfile host="app.diagrams.net" modified="2022-01-06T02:30:54.336Z" agent="5.0 (Windows NT 10.0; Win64; x64) AppleWebKit/537.36 (KHTML, like Gecko) Chrome/97.0.4692.71 Safari/537.36" etag="8qEJHNP_81o8Cvvm8YGr" version="16.2.2" type="github">
  <diagram id="C5RBs43oDa-KdzZeNtuy" name="Page-1">
    <mxGraphModel dx="2062" dy="1122" grid="1" gridSize="10" guides="1" tooltips="1" connect="1" arrows="1" fold="1" page="1" pageScale="1" pageWidth="827" pageHeight="1169" math="0" shadow="0">
      <root>
        <mxCell id="WIyWlLk6GJQsqaUBKTNV-0" />
        <mxCell id="WIyWlLk6GJQsqaUBKTNV-1" parent="WIyWlLk6GJQsqaUBKTNV-0" />
        <mxCell id="-0HCP_ZPMvVVkjuZWv6--1" value="" style="edgeStyle=orthogonalEdgeStyle;rounded=0;orthogonalLoop=1;jettySize=auto;html=1;" edge="1" parent="WIyWlLk6GJQsqaUBKTNV-1" source="WIyWlLk6GJQsqaUBKTNV-3" target="-0HCP_ZPMvVVkjuZWv6--0">
          <mxGeometry relative="1" as="geometry" />
        </mxCell>
        <mxCell id="WIyWlLk6GJQsqaUBKTNV-3" value="下单员" style="rounded=1;whiteSpace=wrap;html=1;fontSize=12;glass=0;strokeWidth=1;shadow=0;" parent="WIyWlLk6GJQsqaUBKTNV-1" vertex="1">
          <mxGeometry x="30" y="250" width="90" height="60" as="geometry" />
        </mxCell>
        <mxCell id="-0HCP_ZPMvVVkjuZWv6--3" value="" style="edgeStyle=orthogonalEdgeStyle;rounded=0;orthogonalLoop=1;jettySize=auto;html=1;" edge="1" parent="WIyWlLk6GJQsqaUBKTNV-1" source="-0HCP_ZPMvVVkjuZWv6--0" target="-0HCP_ZPMvVVkjuZWv6--2">
          <mxGeometry relative="1" as="geometry" />
        </mxCell>
        <mxCell id="-0HCP_ZPMvVVkjuZWv6--0" value="选择合同&lt;span style=&quot;color: rgba(0 , 0 , 0 , 0) ; font-family: monospace ; font-size: 0px&quot;&gt;%3CmxGraphModel%3E%3Croot%3E%3CmxCell%20id%3D%220%22%2F%3E%3CmxCell%20id%3D%221%22%20parent%3D%220%22%2F%3E%3CmxCell%20id%3D%222%22%20value%3D%22%E9%80%89%E6%8B%A9%E5%90%88%E5%90%8C%2F%E5%B7%A5%E7%A8%8B%22%20style%3D%22rounded%3D1%3BwhiteSpace%3Dwrap%3Bhtml%3D1%3BfontSize%3D12%3Bglass%3D0%3BstrokeWidth%3D1%3Bshadow%3D0%3B%22%20vertex%3D%221%22%20parent%3D%221%22%3E%3CmxGeometry%20x%3D%2240%22%20y%3D%22410%22%20width%3D%2290%22%20height%3D%2260%22%20as%3D%22geometry%22%2F%3E%3C%2FmxCell%3E%3C%2Froot%3E%3C%2FmxGraphModel%3E&lt;/span&gt;" style="rounded=1;whiteSpace=wrap;html=1;fontSize=12;glass=0;strokeWidth=1;shadow=0;" vertex="1" parent="WIyWlLk6GJQsqaUBKTNV-1">
          <mxGeometry x="190" y="250" width="90" height="60" as="geometry" />
        </mxCell>
        <mxCell id="-0HCP_ZPMvVVkjuZWv6--8" value="" style="edgeStyle=orthogonalEdgeStyle;rounded=0;orthogonalLoop=1;jettySize=auto;html=1;" edge="1" parent="WIyWlLk6GJQsqaUBKTNV-1" source="-0HCP_ZPMvVVkjuZWv6--2" target="-0HCP_ZPMvVVkjuZWv6--7">
          <mxGeometry relative="1" as="geometry" />
        </mxCell>
        <mxCell id="-0HCP_ZPMvVVkjuZWv6--2" value="选择强度等级" style="rounded=1;whiteSpace=wrap;html=1;fontSize=12;glass=0;strokeWidth=1;shadow=0;" vertex="1" parent="WIyWlLk6GJQsqaUBKTNV-1">
          <mxGeometry x="350" y="250" width="90" height="60" as="geometry" />
        </mxCell>
        <mxCell id="-0HCP_ZPMvVVkjuZWv6--5" value="" style="shape=flexArrow;endArrow=classic;html=1;rounded=0;" edge="1" parent="WIyWlLk6GJQsqaUBKTNV-1">
          <mxGeometry width="50" height="50" relative="1" as="geometry">
            <mxPoint x="370" y="170" as="sourcePoint" />
            <mxPoint x="370" y="240" as="targetPoint" />
          </mxGeometry>
        </mxCell>
        <mxCell id="-0HCP_ZPMvVVkjuZWv6--6" value="如果没有可以&lt;br&gt;直接新增" style="text;html=1;resizable=0;autosize=1;align=center;verticalAlign=middle;points=[];fillColor=none;strokeColor=none;rounded=0;" vertex="1" parent="WIyWlLk6GJQsqaUBKTNV-1">
          <mxGeometry x="390" y="180" width="90" height="30" as="geometry" />
        </mxCell>
        <mxCell id="-0HCP_ZPMvVVkjuZWv6--10" style="edgeStyle=orthogonalEdgeStyle;rounded=0;orthogonalLoop=1;jettySize=auto;html=1;entryX=0.5;entryY=1;entryDx=0;entryDy=0;" edge="1" parent="WIyWlLk6GJQsqaUBKTNV-1" source="-0HCP_ZPMvVVkjuZWv6--7" target="WIyWlLk6GJQsqaUBKTNV-3">
          <mxGeometry relative="1" as="geometry">
            <Array as="points">
              <mxPoint x="555" y="330" />
              <mxPoint x="75" y="330" />
            </Array>
          </mxGeometry>
        </mxCell>
        <mxCell id="-0HCP_ZPMvVVkjuZWv6--13" value="" style="edgeStyle=orthogonalEdgeStyle;rounded=0;orthogonalLoop=1;jettySize=auto;html=1;entryX=0;entryY=0.5;entryDx=0;entryDy=0;" edge="1" parent="WIyWlLk6GJQsqaUBKTNV-1" source="-0HCP_ZPMvVVkjuZWv6--7" target="-0HCP_ZPMvVVkjuZWv6--21">
          <mxGeometry relative="1" as="geometry">
            <mxPoint x="660" y="280" as="targetPoint" />
          </mxGeometry>
        </mxCell>
        <mxCell id="-0HCP_ZPMvVVkjuZWv6--7" value="项目经理审核" style="rounded=1;whiteSpace=wrap;html=1;fontSize=12;glass=0;strokeWidth=1;shadow=0;" vertex="1" parent="WIyWlLk6GJQsqaUBKTNV-1">
          <mxGeometry x="510" y="250" width="90" height="60" as="geometry" />
        </mxCell>
        <mxCell id="-0HCP_ZPMvVVkjuZWv6--9" value="下单" style="text;html=1;resizable=0;autosize=1;align=center;verticalAlign=middle;points=[];fillColor=none;strokeColor=none;rounded=0;" vertex="1" parent="WIyWlLk6GJQsqaUBKTNV-1">
          <mxGeometry x="453" y="250" width="40" height="20" as="geometry" />
        </mxCell>
        <mxCell id="-0HCP_ZPMvVVkjuZWv6--11" value="项目经理可以任命审核员" style="text;html=1;resizable=0;autosize=1;align=center;verticalAlign=middle;points=[];fillColor=none;strokeColor=none;rounded=0;" vertex="1" parent="WIyWlLk6GJQsqaUBKTNV-1">
          <mxGeometry x="240" y="340" width="150" height="20" as="geometry" />
        </mxCell>
        <mxCell id="-0HCP_ZPMvVVkjuZWv6--16" style="edgeStyle=orthogonalEdgeStyle;rounded=0;orthogonalLoop=1;jettySize=auto;html=1;exitX=0.5;exitY=0;exitDx=0;exitDy=0;entryX=0.5;entryY=0;entryDx=0;entryDy=0;" edge="1" parent="WIyWlLk6GJQsqaUBKTNV-1" source="-0HCP_ZPMvVVkjuZWv6--21" target="WIyWlLk6GJQsqaUBKTNV-3">
          <mxGeometry relative="1" as="geometry">
            <mxPoint x="727.5" y="250" as="sourcePoint" />
            <Array as="points">
              <mxPoint x="706" y="160" />
              <mxPoint x="75" y="160" />
            </Array>
          </mxGeometry>
        </mxCell>
        <mxCell id="-0HCP_ZPMvVVkjuZWv6--19" value="" style="edgeStyle=orthogonalEdgeStyle;rounded=0;orthogonalLoop=1;jettySize=auto;html=1;" edge="1" parent="WIyWlLk6GJQsqaUBKTNV-1" target="-0HCP_ZPMvVVkjuZWv6--18">
          <mxGeometry relative="1" as="geometry">
            <mxPoint x="705" y="310" as="sourcePoint" />
          </mxGeometry>
        </mxCell>
        <mxCell id="-0HCP_ZPMvVVkjuZWv6--15" value="审核通过后通知施工单位" style="text;html=1;resizable=0;autosize=1;align=center;verticalAlign=middle;points=[];fillColor=none;strokeColor=none;rounded=0;" vertex="1" parent="WIyWlLk6GJQsqaUBKTNV-1">
          <mxGeometry x="536" y="200" width="150" height="20" as="geometry" />
        </mxCell>
        <mxCell id="-0HCP_ZPMvVVkjuZWv6--17" value="拒绝后需要工地重新下单" style="text;html=1;resizable=0;autosize=1;align=center;verticalAlign=middle;points=[];fillColor=none;strokeColor=none;rounded=0;" vertex="1" parent="WIyWlLk6GJQsqaUBKTNV-1">
          <mxGeometry x="315" y="130" width="150" height="20" as="geometry" />
        </mxCell>
        <mxCell id="-0HCP_ZPMvVVkjuZWv6--24" value="" style="edgeStyle=orthogonalEdgeStyle;rounded=0;orthogonalLoop=1;jettySize=auto;html=1;" edge="1" parent="WIyWlLk6GJQsqaUBKTNV-1" source="-0HCP_ZPMvVVkjuZWv6--18" target="-0HCP_ZPMvVVkjuZWv6--23">
          <mxGeometry relative="1" as="geometry" />
        </mxCell>
        <mxCell id="-0HCP_ZPMvVVkjuZWv6--18" value="将生产的小票号和车辆关联" style="rounded=1;whiteSpace=wrap;html=1;fontSize=12;glass=0;strokeWidth=1;shadow=0;" vertex="1" parent="WIyWlLk6GJQsqaUBKTNV-1">
          <mxGeometry x="660" y="410" width="90" height="60" as="geometry" />
        </mxCell>
        <mxCell id="-0HCP_ZPMvVVkjuZWv6--20" value="通过" style="text;html=1;resizable=0;autosize=1;align=center;verticalAlign=middle;points=[];fillColor=none;strokeColor=none;rounded=0;" vertex="1" parent="WIyWlLk6GJQsqaUBKTNV-1">
          <mxGeometry x="710" y="350" width="40" height="20" as="geometry" />
        </mxCell>
        <mxCell id="-0HCP_ZPMvVVkjuZWv6--22" style="edgeStyle=orthogonalEdgeStyle;rounded=0;orthogonalLoop=1;jettySize=auto;html=1;entryX=0.5;entryY=0;entryDx=0;entryDy=0;" edge="1" parent="WIyWlLk6GJQsqaUBKTNV-1" source="-0HCP_ZPMvVVkjuZWv6--21" target="-0HCP_ZPMvVVkjuZWv6--7">
          <mxGeometry relative="1" as="geometry">
            <Array as="points">
              <mxPoint x="676" y="230" />
              <mxPoint x="555" y="230" />
            </Array>
          </mxGeometry>
        </mxCell>
        <mxCell id="-0HCP_ZPMvVVkjuZWv6--32" style="edgeStyle=orthogonalEdgeStyle;rounded=0;orthogonalLoop=1;jettySize=auto;html=1;exitX=0;exitY=1;exitDx=0;exitDy=0;entryX=0.5;entryY=0;entryDx=0;entryDy=0;" edge="1" parent="WIyWlLk6GJQsqaUBKTNV-1" source="-0HCP_ZPMvVVkjuZWv6--21" target="-0HCP_ZPMvVVkjuZWv6--27">
          <mxGeometry relative="1" as="geometry">
            <Array as="points">
              <mxPoint x="676" y="390" />
              <mxPoint x="555" y="390" />
            </Array>
          </mxGeometry>
        </mxCell>
        <mxCell id="-0HCP_ZPMvVVkjuZWv6--21" value="搅拌楼审核" style="rhombus;whiteSpace=wrap;html=1;" vertex="1" parent="WIyWlLk6GJQsqaUBKTNV-1">
          <mxGeometry x="646" y="240" width="120" height="80" as="geometry" />
        </mxCell>
        <mxCell id="-0HCP_ZPMvVVkjuZWv6--28" value="" style="edgeStyle=orthogonalEdgeStyle;rounded=0;orthogonalLoop=1;jettySize=auto;html=1;" edge="1" parent="WIyWlLk6GJQsqaUBKTNV-1" source="-0HCP_ZPMvVVkjuZWv6--23" target="-0HCP_ZPMvVVkjuZWv6--27">
          <mxGeometry relative="1" as="geometry" />
        </mxCell>
        <mxCell id="-0HCP_ZPMvVVkjuZWv6--23" value="显示车辆实时运输进度" style="rounded=1;whiteSpace=wrap;html=1;fontSize=12;glass=0;strokeWidth=1;shadow=0;" vertex="1" parent="WIyWlLk6GJQsqaUBKTNV-1">
          <mxGeometry x="660" y="560" width="90" height="60" as="geometry" />
        </mxCell>
        <mxCell id="-0HCP_ZPMvVVkjuZWv6--25" value="" style="shape=flexArrow;endArrow=classic;html=1;rounded=0;" edge="1" parent="WIyWlLk6GJQsqaUBKTNV-1">
          <mxGeometry width="50" height="50" relative="1" as="geometry">
            <mxPoint x="766" y="500" as="sourcePoint" />
            <mxPoint x="732" y="560" as="targetPoint" />
          </mxGeometry>
        </mxCell>
        <mxCell id="-0HCP_ZPMvVVkjuZWv6--26" value="对接ERP" style="text;html=1;resizable=0;autosize=1;align=center;verticalAlign=middle;points=[];fillColor=none;strokeColor=none;rounded=0;" vertex="1" parent="WIyWlLk6GJQsqaUBKTNV-1">
          <mxGeometry x="750" y="530" width="60" height="20" as="geometry" />
        </mxCell>
        <mxCell id="-0HCP_ZPMvVVkjuZWv6--31" value="" style="edgeStyle=orthogonalEdgeStyle;rounded=0;orthogonalLoop=1;jettySize=auto;html=1;" edge="1" parent="WIyWlLk6GJQsqaUBKTNV-1" source="-0HCP_ZPMvVVkjuZWv6--27" target="-0HCP_ZPMvVVkjuZWv6--30">
          <mxGeometry relative="1" as="geometry" />
        </mxCell>
        <mxCell id="-0HCP_ZPMvVVkjuZWv6--27" value="司机点击送达" style="rounded=1;whiteSpace=wrap;html=1;fontSize=12;glass=0;strokeWidth=1;shadow=0;" vertex="1" parent="WIyWlLk6GJQsqaUBKTNV-1">
          <mxGeometry x="510" y="560" width="90" height="60" as="geometry" />
        </mxCell>
        <mxCell id="-0HCP_ZPMvVVkjuZWv6--29" value="送达工地" style="text;html=1;resizable=0;autosize=1;align=center;verticalAlign=middle;points=[];fillColor=none;strokeColor=none;rounded=0;" vertex="1" parent="WIyWlLk6GJQsqaUBKTNV-1">
          <mxGeometry x="599" y="568" width="60" height="20" as="geometry" />
        </mxCell>
        <mxCell id="-0HCP_ZPMvVVkjuZWv6--39" value="" style="edgeStyle=orthogonalEdgeStyle;rounded=0;orthogonalLoop=1;jettySize=auto;html=1;" edge="1" parent="WIyWlLk6GJQsqaUBKTNV-1" source="-0HCP_ZPMvVVkjuZWv6--30" target="-0HCP_ZPMvVVkjuZWv6--38">
          <mxGeometry relative="1" as="geometry" />
        </mxCell>
        <mxCell id="-0HCP_ZPMvVVkjuZWv6--30" value="下单员确认签收" style="rounded=1;whiteSpace=wrap;html=1;fontSize=12;glass=0;strokeWidth=1;shadow=0;" vertex="1" parent="WIyWlLk6GJQsqaUBKTNV-1">
          <mxGeometry x="350" y="560" width="90" height="60" as="geometry" />
        </mxCell>
        <mxCell id="-0HCP_ZPMvVVkjuZWv6--33" value="搅拌楼可以&lt;br&gt;设置司机账号" style="text;html=1;resizable=0;autosize=1;align=center;verticalAlign=middle;points=[];fillColor=none;strokeColor=none;rounded=0;rotation=0;" vertex="1" parent="WIyWlLk6GJQsqaUBKTNV-1">
          <mxGeometry x="465" y="440" width="90" height="30" as="geometry" />
        </mxCell>
        <mxCell id="-0HCP_ZPMvVVkjuZWv6--41" value="" style="edgeStyle=orthogonalEdgeStyle;rounded=0;orthogonalLoop=1;jettySize=auto;html=1;" edge="1" parent="WIyWlLk6GJQsqaUBKTNV-1" source="-0HCP_ZPMvVVkjuZWv6--38" target="-0HCP_ZPMvVVkjuZWv6--40">
          <mxGeometry relative="1" as="geometry" />
        </mxCell>
        <mxCell id="-0HCP_ZPMvVVkjuZWv6--44" value="" style="edgeStyle=orthogonalEdgeStyle;rounded=0;orthogonalLoop=1;jettySize=auto;html=1;" edge="1" parent="WIyWlLk6GJQsqaUBKTNV-1" source="-0HCP_ZPMvVVkjuZWv6--38" target="-0HCP_ZPMvVVkjuZWv6--42">
          <mxGeometry relative="1" as="geometry" />
        </mxCell>
        <mxCell id="-0HCP_ZPMvVVkjuZWv6--38" value="是否退料" style="rhombus;whiteSpace=wrap;html=1;" vertex="1" parent="WIyWlLk6GJQsqaUBKTNV-1">
          <mxGeometry x="190" y="550" width="100" height="80" as="geometry" />
        </mxCell>
        <mxCell id="-0HCP_ZPMvVVkjuZWv6--40" value="收货/泵送" style="rounded=1;whiteSpace=wrap;html=1;fontSize=12;glass=0;strokeWidth=1;shadow=0;" vertex="1" parent="WIyWlLk6GJQsqaUBKTNV-1">
          <mxGeometry x="50" y="560" width="90" height="60" as="geometry" />
        </mxCell>
        <mxCell id="-0HCP_ZPMvVVkjuZWv6--47" value="" style="edgeStyle=orthogonalEdgeStyle;rounded=0;orthogonalLoop=1;jettySize=auto;html=1;" edge="1" parent="WIyWlLk6GJQsqaUBKTNV-1" source="-0HCP_ZPMvVVkjuZWv6--42" target="-0HCP_ZPMvVVkjuZWv6--46">
          <mxGeometry relative="1" as="geometry" />
        </mxCell>
        <mxCell id="-0HCP_ZPMvVVkjuZWv6--51" style="edgeStyle=orthogonalEdgeStyle;rounded=0;orthogonalLoop=1;jettySize=auto;html=1;entryX=1;entryY=0.5;entryDx=0;entryDy=0;fontColor=#FF3333;exitX=0.25;exitY=1;exitDx=0;exitDy=0;" edge="1" parent="WIyWlLk6GJQsqaUBKTNV-1" source="-0HCP_ZPMvVVkjuZWv6--42" target="-0HCP_ZPMvVVkjuZWv6--50">
          <mxGeometry relative="1" as="geometry" />
        </mxCell>
        <mxCell id="-0HCP_ZPMvVVkjuZWv6--53" style="edgeStyle=orthogonalEdgeStyle;rounded=0;orthogonalLoop=1;jettySize=auto;html=1;entryX=0;entryY=0.5;entryDx=0;entryDy=0;fontColor=#FF3333;exitX=0.75;exitY=1;exitDx=0;exitDy=0;" edge="1" parent="WIyWlLk6GJQsqaUBKTNV-1" source="-0HCP_ZPMvVVkjuZWv6--42" target="-0HCP_ZPMvVVkjuZWv6--52">
          <mxGeometry relative="1" as="geometry" />
        </mxCell>
        <mxCell id="-0HCP_ZPMvVVkjuZWv6--42" value="选择退料方式" style="rounded=1;whiteSpace=wrap;html=1;fontSize=12;glass=0;strokeWidth=1;shadow=0;" vertex="1" parent="WIyWlLk6GJQsqaUBKTNV-1">
          <mxGeometry x="195" y="690" width="90" height="60" as="geometry" />
        </mxCell>
        <mxCell id="-0HCP_ZPMvVVkjuZWv6--43" value="否" style="text;html=1;resizable=0;autosize=1;align=center;verticalAlign=middle;points=[];fillColor=none;strokeColor=none;rounded=0;" vertex="1" parent="WIyWlLk6GJQsqaUBKTNV-1">
          <mxGeometry x="155" y="560" width="30" height="20" as="geometry" />
        </mxCell>
        <mxCell id="-0HCP_ZPMvVVkjuZWv6--45" value="是" style="text;html=1;resizable=0;autosize=1;align=center;verticalAlign=middle;points=[];fillColor=none;strokeColor=none;rounded=0;" vertex="1" parent="WIyWlLk6GJQsqaUBKTNV-1">
          <mxGeometry x="250" y="650" width="30" height="20" as="geometry" />
        </mxCell>
        <mxCell id="-0HCP_ZPMvVVkjuZWv6--46" value="废弃" style="rounded=1;whiteSpace=wrap;html=1;fontSize=12;glass=0;strokeWidth=1;shadow=0;" vertex="1" parent="WIyWlLk6GJQsqaUBKTNV-1">
          <mxGeometry x="40" y="690" width="90" height="60" as="geometry" />
        </mxCell>
        <mxCell id="-0HCP_ZPMvVVkjuZWv6--48" value="" style="shape=flexArrow;endArrow=classic;html=1;rounded=0;" edge="1" parent="WIyWlLk6GJQsqaUBKTNV-1">
          <mxGeometry width="50" height="50" relative="1" as="geometry">
            <mxPoint x="350" y="650" as="sourcePoint" />
            <mxPoint x="290" y="690" as="targetPoint" />
          </mxGeometry>
        </mxCell>
        <mxCell id="-0HCP_ZPMvVVkjuZWv6--49" value="&lt;font color=&quot;#ff3333&quot;&gt;都需要搅拌楼&lt;br&gt;审核通过&lt;/font&gt;" style="text;html=1;resizable=0;autosize=1;align=center;verticalAlign=middle;points=[];fillColor=none;strokeColor=none;rounded=0;" vertex="1" parent="WIyWlLk6GJQsqaUBKTNV-1">
          <mxGeometry x="315" y="680" width="90" height="30" as="geometry" />
        </mxCell>
        <mxCell id="-0HCP_ZPMvVVkjuZWv6--50" value="降级选择&lt;br&gt;其他订单" style="rounded=1;whiteSpace=wrap;html=1;fontSize=12;glass=0;strokeWidth=1;shadow=0;" vertex="1" parent="WIyWlLk6GJQsqaUBKTNV-1">
          <mxGeometry x="40" y="820" width="90" height="60" as="geometry" />
        </mxCell>
        <mxCell id="-0HCP_ZPMvVVkjuZWv6--56" style="edgeStyle=orthogonalEdgeStyle;rounded=0;orthogonalLoop=1;jettySize=auto;html=1;entryX=0;entryY=0.5;entryDx=0;entryDy=0;fontColor=#FF3333;exitX=0.5;exitY=0;exitDx=0;exitDy=0;" edge="1" parent="WIyWlLk6GJQsqaUBKTNV-1" source="-0HCP_ZPMvVVkjuZWv6--52" target="-0HCP_ZPMvVVkjuZWv6--54">
          <mxGeometry relative="1" as="geometry" />
        </mxCell>
        <mxCell id="-0HCP_ZPMvVVkjuZWv6--57" style="edgeStyle=orthogonalEdgeStyle;rounded=0;orthogonalLoop=1;jettySize=auto;html=1;entryX=0;entryY=0.5;entryDx=0;entryDy=0;fontColor=#FF3333;exitX=0.5;exitY=1;exitDx=0;exitDy=0;" edge="1" parent="WIyWlLk6GJQsqaUBKTNV-1" source="-0HCP_ZPMvVVkjuZWv6--52" target="-0HCP_ZPMvVVkjuZWv6--55">
          <mxGeometry relative="1" as="geometry" />
        </mxCell>
        <mxCell id="-0HCP_ZPMvVVkjuZWv6--52" value="转运到其他工地的订单上" style="rounded=1;whiteSpace=wrap;html=1;fontSize=12;glass=0;strokeWidth=1;shadow=0;" vertex="1" parent="WIyWlLk6GJQsqaUBKTNV-1">
          <mxGeometry x="340" y="820" width="90" height="60" as="geometry" />
        </mxCell>
        <mxCell id="-0HCP_ZPMvVVkjuZWv6--54" value="同级使用" style="rounded=1;whiteSpace=wrap;html=1;fontSize=12;glass=0;strokeWidth=1;shadow=0;" vertex="1" parent="WIyWlLk6GJQsqaUBKTNV-1">
          <mxGeometry x="480" y="740" width="90" height="60" as="geometry" />
        </mxCell>
        <mxCell id="-0HCP_ZPMvVVkjuZWv6--55" value="降级使用" style="rounded=1;whiteSpace=wrap;html=1;fontSize=12;glass=0;strokeWidth=1;shadow=0;" vertex="1" parent="WIyWlLk6GJQsqaUBKTNV-1">
          <mxGeometry x="480" y="890" width="90" height="60" as="geometry" />
        </mxCell>
      </root>
    </mxGraphModel>
  </diagram>
</mxfile>
